<svg width="400" height="400" viewBox="0 0 400 400" fill="none" xmlns="http://www.w3.org/2000/svg">
<g id="MainDraw">
<circle id="sun" cx="200" cy="200" r="200" fill="url(#paint0_linear)"/>
<g id="body">
<path id="Vector" d="M222.166 156.375C225.397 162.025 229.551 167.452 235.058 169.409C236.806 170.025 238.751 170.375 239.982 171.939C240.768 173.093 241.278 174.413 241.471 175.797C243.483 185.686 242.135 196.609 246.086 205.643C249.286 212.96 255.409 217.729 260.277 223.631C265.145 229.532 268.966 238.357 266.012 245.815C265.159 247.882 263.839 249.723 262.155 251.195C260.472 252.666 258.47 253.727 256.308 254.295C252.234 255.397 247.982 254.911 243.846 254.203C238.394 253.237 232.843 251.742 228.302 248.049C220.443 241.668 217.12 230.203 213.009 220.012C211.077 215.237 208.511 210.234 204.265 208.523C199.397 206.566 193.932 209.834 190.775 214.628C187.618 219.422 186.215 225.446 184.689 231.243C182.966 237.785 180.782 244.585 176.252 248.862C174.288 250.778 171.811 252.085 169.12 252.623C166.429 253.161 163.64 252.909 161.089 251.895C156.043 249.791 152.049 244.474 150.892 238.302C149.102 228.788 153.391 217.379 148.129 209.859C146.086 206.948 142.966 205.36 140.745 202.603C138.006 199.151 137.003 194.234 136.788 189.514C136.326 179.434 139.785 168.203 147.563 164.031C149.643 162.917 151.963 162.332 153.791 160.708C159.945 155.243 157.046 141.809 163.415 136.708C165.262 135.225 167.575 134.812 169.803 134.499C176.043 133.631 182.24 133.532 188.517 133.551C192.566 133.551 196.745 132.203 200.751 132.499C211.526 133.311 216.923 147.225 222.166 156.375Z" fill="#965D7B"/>
<path id="Vector_2" d="M106.64 366.252L108.997 394.172L273.846 393.194L270.708 362.714L214.972 356.228L117.237 362.123L106.64 366.252Z" fill="#575988"/>
<path id="Vector_3" opacity="0.05" d="M106.64 366.252L108.997 394.172L273.846 393.194L270.708 362.714L214.972 356.228L117.237 362.123L106.64 366.252Z" fill="black"/>
<path id="Vector_4" d="M215.114 385.772L160.234 390.911C160.234 390.911 197.834 400.486 219.785 395.834L215.114 385.772Z" fill="#F7C4A7"/>
<path id="Vector_5" opacity="0.1" d="M215.114 385.772L160.234 390.911C160.234 390.911 197.834 400.486 219.785 395.834L215.114 385.772Z" fill="black"/>
<path id="Vector_6" d="M173.311 189.138C173.311 189.138 184.055 217.397 168.172 230.006C152.289 242.615 165.372 277.883 165.372 277.883L226.56 275.083C226.56 275.083 232.634 235.385 229.36 226.972C229.36 226.972 214.88 231.175 211.612 222.302C208.345 213.428 206.006 189.138 206.006 189.138H173.311Z" fill="#F7C4A7"/>
<path id="Vector_7" d="M159.298 360.08C159.298 360.08 107.686 358.911 92.5107 355.157C77.3354 351.403 64.2523 369.403 69.6246 379.68C74.9969 389.957 89.9323 396.96 89.9323 396.96C89.9323 396.96 166.763 400.695 183.348 390.191C183.348 390.191 189.655 372.209 183.348 368.708H103.255L162.332 367.538L159.298 360.08Z" fill="#575988"/>
<path id="Vector_8" d="M241.274 354.714C241.274 354.714 258.554 358.449 282.375 349.108C282.375 349.108 326.978 347.705 312.037 376.185C297.095 404.665 214.418 397.668 214.418 397.668C214.418 397.668 209.495 387.157 214.418 384.357C219.342 381.557 262.062 363.575 275.342 364.505L238.418 371.742L241.274 354.714Z" fill="#575988"/>
<path id="Vector_9" opacity="0.1" d="M208.123 202.732C207.231 196.08 206.708 190.658 206.708 190.658H174.012C175.522 194.941 176.57 199.372 177.138 203.877C181.723 207.087 187.23 208.712 192.823 208.505C198.416 208.299 203.788 206.272 208.123 202.732V202.732Z" fill="black"/>
<path id="Vector_10" d="M191.175 206.997C205.361 206.997 216.862 195.497 216.862 181.311C216.862 167.125 205.361 155.625 191.175 155.625C176.989 155.625 165.489 167.125 165.489 181.311C165.489 195.497 176.989 206.997 191.175 206.997Z" fill="#F7C4A7"/>
<path id="Vector_11" d="M176.117 226.037C176.117 226.037 145.292 231.877 141.557 239.575C137.822 247.274 138.289 273.674 138.289 273.674C138.289 273.674 139.692 316.88 128.948 322.246L88.7815 350.271C88.7815 350.271 60.2892 325.28 53.2862 339.994C46.2831 354.708 86.9169 360.08 86.9169 360.08L132.222 346.542L146.702 337.2C146.702 337.2 153.471 333.932 154.172 325.988L160.246 277.877L184.535 270.874H223.754L229.009 255.871C229.009 255.871 238.702 263.637 237.298 270.874C235.895 278.111 239.631 325.028 239.631 325.028C239.631 325.028 242.665 335.539 248.972 338.566L285.409 351.686C285.409 351.686 323.945 355.422 326.511 338.609C329.077 321.797 288.677 340.942 288.677 340.942L259.717 318.523C259.717 318.523 257.385 309.182 256.449 302.64C255.514 296.099 254.117 268.08 254.117 268.08C254.117 268.08 262.991 238.652 237.305 233.52L204.142 223.243L176.117 226.037Z" fill="#F7C4A7"/>
<path id="Vector_12" opacity="0.1" d="M155.446 231.988L160.234 263.631C160.234 263.631 155.311 278.345 160.234 292.825C165.157 307.305 154.154 361.249 154.154 361.249C154.154 361.249 211.834 379.711 247.077 358.449C247.077 358.449 221.157 303.803 232.129 285.588C243.102 267.372 232.308 260.246 232.308 260.246L234.031 226.763L226.092 224.431L221.422 257.532C221.422 257.532 189.194 279.951 165.372 260.332L160.234 224.369L155.446 231.988Z" fill="black"/>
<path id="Vector_13" opacity="0.1" d="M155.446 231.988L160.234 261.994C160.234 261.994 155.311 276.708 160.234 291.188C165.157 305.668 154.154 359.612 154.154 359.612C154.154 359.612 211.834 378.074 247.077 356.812C247.077 356.812 221.157 302.166 232.129 283.951C243.102 265.735 232.308 258.609 232.308 258.609L233.994 225.102L226.055 222.769L221.385 255.932C221.385 255.932 189.157 278.351 165.335 258.732L160.197 222.769L155.446 231.988Z" fill="black"/>
<path id="Vector_14" d="M155.212 231.754L160.234 262.462C160.234 262.462 155.311 277.175 160.234 291.655C165.157 306.135 154.154 360.08 154.154 360.08C154.154 360.08 211.834 378.542 247.077 357.28C247.077 357.28 221.157 302.634 232.129 284.419C243.102 266.203 232.308 259.077 232.308 259.077L233.994 225.569L226.055 223.237L221.385 256.4C221.385 256.4 189.157 278.819 165.335 259.2L160.197 223.237L155.212 231.754Z" fill="#F03EC0"/>
<path id="Vector_15" d="M178.917 371.526L191.077 369.889C191.077 369.889 205.089 351.908 215.132 365.686C215.132 365.686 219.335 374.56 224.474 376.197C227.988 377.259 231.581 378.039 235.218 378.529L214.437 384.369C214.437 384.369 205.329 389.742 195.754 388.338C190.117 387.48 184.358 387.96 178.942 389.742L178.917 371.526Z" fill="#F7C4A7"/>
<path id="Vector_16" opacity="0.1" d="M165.489 295.274C165.489 295.274 187.44 298.542 191.175 292.708Z" fill="black"/>
<path id="Vector_17" opacity="0.1" d="M207.077 291.539C207.077 291.539 211.28 295.742 228.092 292.708Z" fill="black"/>
<path id="Vector_18" opacity="0.1" d="M164.32 226.382C164.32 226.382 180.431 228.714 183.471 227.317Z" fill="black"/>
<path id="Vector_19" opacity="0.1" d="M199.822 226.382C199.822 226.382 215.932 228.714 218.972 227.317Z" fill="black"/>
<path id="Vector_20" opacity="0.1" d="M180.671 369.772C180.671 369.772 185.108 390.695 180.671 391.434C176.234 392.172 169.926 387.988 169.926 387.52C169.926 387.052 172.726 373.742 172.726 373.742L180.671 369.772Z" fill="black"/>
<path id="Vector_21" d="M180.203 369.772C180.203 369.772 184.64 390.695 180.203 391.434C175.766 392.172 169.458 387.988 169.458 387.52C169.458 387.052 172.258 373.742 172.258 373.742L180.203 369.772Z" fill="#575988"/>
<path id="Vector_22" opacity="0.1" d="M158.523 223.323C156.566 227.871 155.871 233.237 157.951 237.729C159.538 241.157 162.64 243.932 163.237 247.662C163.988 252.338 160.523 257.095 161.815 261.649C162.308 263.397 163.458 264.874 164.628 266.258C168.185 270.462 172.911 274.529 178.4 274.203C179.268 265.723 171.938 257.495 174.338 249.317C175.2 246.388 177.218 243.951 178.437 241.157C180.462 236.523 180.172 231.231 179.44 226.228C178.375 218.972 175.68 210.068 168.486 206.671C165.175 205.108 160.486 204.997 159.305 209.237C158.689 211.502 160.166 213.631 160.369 215.846C160.628 218.658 159.612 220.794 158.523 223.323Z" fill="black"/>
<path id="Vector_23" d="M158.523 222.622C156.566 227.169 155.871 232.535 157.951 237.028C159.538 240.455 162.64 243.231 163.237 246.96C163.988 251.637 160.523 256.394 161.815 260.948C162.308 262.695 163.458 264.172 164.628 265.557C168.185 269.76 172.911 273.828 178.4 273.502C179.268 265.022 171.938 256.794 174.338 248.615C175.2 245.686 177.218 243.249 178.437 240.455C180.462 235.822 180.172 230.529 179.44 225.526C178.375 218.271 175.68 209.366 168.486 205.969C165.175 204.406 160.486 204.295 159.305 208.535C158.689 210.8 160.166 212.929 160.369 215.145C160.628 217.963 159.612 220.098 158.523 222.622Z" fill="#965D7B"/>
<path id="Vector_24" opacity="0.1" d="M160.351 168.702C160.351 168.702 194.449 164.031 195.378 171.034C196.308 178.037 226.437 189.495 226.437 189.495L218.966 171.034L205.188 148.148C205.188 148.148 179.957 146.302 178.8 148.148C177.643 149.994 164.32 156.086 164.32 156.086L160.351 168.702Z" fill="black"/>
<path id="Vector_25" d="M160.351 168.234C160.351 168.234 194.449 163.563 195.378 170.566C196.308 177.569 226.437 189.028 226.437 189.028L218.966 170.566L205.188 147.686C205.188 147.686 179.957 145.84 178.8 147.686C177.643 149.532 164.32 155.625 164.32 155.625L160.351 168.234Z" fill="#965D7B"/>
<path id="Vector_26" opacity="0.1" d="M219.686 218.148C221.344 220.133 222.516 222.479 223.108 224.997C223.674 227.403 223.692 229.92 224.234 232.332C225.385 237.471 228.782 241.791 232.332 245.68C233.481 247.089 234.884 248.27 236.468 249.163C238.092 249.963 240.16 250.129 241.668 249.163C240.24 247.994 239.465 246.203 238.954 244.425C238.235 241.945 237.915 239.367 238.006 236.788C238.16 232.48 239.422 227.932 237.631 224.006C236.597 221.742 234.671 220.019 232.708 218.468C231.344 217.359 229.872 216.39 228.314 215.575C225.415 214.129 222.086 213.495 218.886 213.182C214.714 212.751 218.363 216.56 219.686 218.148Z" fill="black"/>
<path id="Vector_27" d="M219.686 217.44C221.346 219.429 222.518 221.779 223.108 224.302C223.674 226.708 223.692 229.225 224.234 231.637C225.385 236.775 228.782 241.095 232.332 244.985C233.481 246.394 234.884 247.575 236.468 248.468C238.092 249.268 240.16 249.434 241.668 248.468C240.24 247.299 239.465 245.508 238.954 243.729C238.235 241.25 237.915 238.672 238.006 236.092C238.16 231.785 239.422 227.237 237.631 223.311C236.597 221.046 234.671 219.323 232.708 217.772C231.344 216.663 229.872 215.694 228.314 214.88C225.415 213.434 222.086 212.8 218.886 212.486C214.714 212.049 218.363 215.859 219.686 217.44Z" fill="#965D7B"/>
</g>
</g>
<defs>
<linearGradient id="paint0_linear" x1="200" y1="0" x2="200" y2="400" gradientUnits="userSpaceOnUse">
<stop stop-color="#FAFF0F"/>
<stop offset="1" stop-color="#FE5106" stop-opacity="0.87"/>
</linearGradient>
</defs>
</svg>
