<svg width="59" height="40" viewBox="0 0 59 40" fill="none" xmlns="http://www.w3.org/2000/svg">
<g id="LogoImage">
<path id="Vector 2" d="M23.7538 9.01645C16.6604 8.89562 12.9838 9.41371 7 11.4641C7.38166 18.4603 9.56337 22.4882 14.6154 29.8214C19.3222 34.8243 22.1081 36.6825 27.3077 38.3881L35.4308 39L40 37.1478L35.9385 12.2344C32.7908 9.55665 27.2602 9.75298 23.7538 9.01645Z" fill="white" stroke="#C32ED9"/>
<path id="Vector 1" d="M38 39C34.1821 31.4872 33.5 26 35 18.5C36.5 11 43.5 7.5 43.5 7.5L54.5 1L57 8C58.4167 14.8447 58.3794 18.4479 57 24.5C54.355 29.1668 52.3959 31.369 48 34.5L38 39Z" fill="#FFFCFC" stroke="#C32ED9"/>
<path id="Vector 3" d="M38 38.5L40 30M40 30L38 26M40 30L45 28.5M40 30L43.5 22.5M43.5 22.5L40 19M43.5 22.5L49 21.5M43.5 22.5L45.9138 17.5M50.5 8L45.9138 17.5M45.9138 17.5L42.5 12.5M45.9138 17.5L51 14" stroke="#C32ED9"/>
<g id="Group 1">
<path id="Vector 4" d="M34 28C27.4133 23.5523 23.4513 21.742 16 19.5M30.5 25.7368L31.5 22.5" stroke="#C32ED9"/>
<path id="Vector 5" d="M30.5 26L26.5 29M26 23V19M25.5 23L19 24" stroke="#C32ED9"/>
</g>
</g>
</svg>
